<?xml version="1.0" encoding="UTF-8" standalone="no"?>
<!-- Generator: Adobe Illustrator 15.1.0, SVG Export Plug-In . SVG Version: 6.00 Build 0)  -->

<svg
   xmlns:dc="http://purl.org/dc/elements/1.1/"
   xmlns:cc="http://creativecommons.org/ns#"
   xmlns:rdf="http://www.w3.org/1999/02/22-rdf-syntax-ns#"
   xmlns:svg="http://www.w3.org/2000/svg"
   xmlns="http://www.w3.org/2000/svg"
   xmlns:sodipodi="http://sodipodi.sourceforge.net/DTD/sodipodi-0.dtd"
   xmlns:inkscape="http://www.inkscape.org/namespaces/inkscape"
   version="1.1"
   id="Layer_1"
   x="0px"
   y="0px"
   width="555.25"
   height="492.89084"
   viewBox="0 0 555.25 492.89084"
   enable-background="new 0 0 864 1224"
   xml:space="preserve"
   inkscape:version="0.48.2 r9819"
   sodipodi:docname="nep-logo-black-notext.svg"><metadata
   id="metadata3267"><rdf:RDF><cc:Work
       rdf:about=""><dc:format>image/svg+xml</dc:format><dc:type
         rdf:resource="http://purl.org/dc/dcmitype/StillImage" /><dc:title></dc:title></cc:Work></rdf:RDF></metadata><defs
   id="defs3265">
	
	
	
	
	
	
	
	
	
	
	
	
	
	
	
	
	
	
	
	
	
	
</defs><sodipodi:namedview
   pagecolor="#ffffff"
   bordercolor="#666666"
   borderopacity="1"
   objecttolerance="10"
   gridtolerance="10"
   guidetolerance="10"
   inkscape:pageopacity="0"
   inkscape:pageshadow="2"
   inkscape:window-width="1440"
   inkscape:window-height="852"
   id="namedview3263"
   showgrid="false"
   inkscape:zoom="1.1368869"
   inkscape:cx="217.73226"
   inkscape:cy="255.67348"
   inkscape:window-x="0"
   inkscape:window-y="0"
   inkscape:window-maximized="1"
   inkscape:current-layer="Layer_1"
   fit-margin-top="0"
   fit-margin-left="0"
   fit-margin-right="0"
   fit-margin-bottom="0" />

<path
   inkscape:connector-curvature="0"
   id="path3221"
   d="m 184.262,487.534 c 0,0 60.623,23.271 101.488,-27.193 -60.623,-23.273 -101.488,27.193 -101.488,27.193 z"
   style="fill:#ffffff" /><path
   inkscape:connector-curvature="0"
   id="path3223"
   d="m 199.179,382.098 c 0,0 7.216,64.533 70.821,77.611 -7.215,-64.535 -70.821,-77.611 -70.821,-77.611 z"
   style="fill:#ffffff" /><path
   inkscape:connector-curvature="0"
   id="path3225"
   d="m 151.651,348.832 c 0,0 -10.462,64.088 47.256,93.842 10.464,-64.088 -47.256,-93.842 -47.256,-93.842 z"
   style="fill:#ffffff" /><path
   inkscape:connector-curvature="0"
   id="path3227"
   d="m 125.026,296.21 c 0,0 -36.25,53.876 3.789,104.999 36.251,-53.876 -3.789,-104.999 -3.789,-104.999 z"
   style="fill:#ffffff" /><path
   inkscape:connector-curvature="0"
   id="path3229"
   d="m 108.727,245.208 c 0,0 -49.653,41.847 -25.196,102.001 49.654,-41.847 25.196,-102.001 25.196,-102.001 z"
   style="fill:#ffffff" /><path
   inkscape:connector-curvature="0"
   id="path3231"
   d="m 116.988,181.311 c 0,0 -61.003,22.255 -58.687,87.148 61.004,-22.254 58.687,-87.148 58.687,-87.148 z"
   style="fill:#ffffff" /><path
   inkscape:connector-curvature="0"
   id="path3233"
   d="m 148.5,126.709 c 0,0 -64.936,0.168 -84.841,61.977 64.936,-0.166 84.841,-61.977 84.841,-61.977 z"
   style="fill:#ffffff" /><path
   inkscape:connector-curvature="0"
   id="path3235"
   d="m 200.25,83.842 c 0,0 -61.312,-21.385 -100.597,30.318 61.312,21.387 100.597,-30.318 100.597,-30.318 z"
   style="fill:#ffffff" /><path
   inkscape:connector-curvature="0"
   id="path3237"
   d="m 106.496,449.497 c 0,0 51.17,39.979 105.004,3.666 -51.17,-39.979 -105.004,-3.666 -105.004,-3.666 z"
   style="fill:#ffffff" /><path
   inkscape:connector-curvature="0"
   id="path3239"
   d="m 51.75,389.341 c 0,0 37.246,53.192 99.344,34.206 C 113.849,370.354 51.75,389.341 51.75,389.341 z"
   style="fill:#ffffff" /><path
   inkscape:connector-curvature="0"
   id="path3241"
   d="m 9.498,310.642 c 0,0 20.066,61.758 85.002,61.757 C 74.435,310.641 9.498,310.642 9.498,310.642 z"
   style="fill:#ffffff" /><path
   inkscape:connector-curvature="0"
   id="path3243"
   d="m 0,226.73 c 0,0 1.133,64.926 63.232,83.911 C 62.1,245.716 0,226.73 0,226.73 z"
   style="fill:#ffffff" /><path
   inkscape:connector-curvature="0"
   id="path3245"
   d="m 16.668,144.142 c 0,0 -17.898,62.421 35.937,98.732 17.899,-62.42 -35.937,-98.732 -35.937,-98.732 z"
   style="fill:#ffffff" /><path
   inkscape:connector-curvature="0"
   id="path3247"
   d="m 59.208,68.467 c 0,0 -35.367,54.461 5.499,104.925 C 100.074,118.933 59.208,68.467 59.208,68.467 z"
   style="fill:#ffffff" /><path
   inkscape:connector-curvature="0"
   id="path3249"
   d="m 120.053,15.193 c 0,0 -49.744,41.742 -25.418,101.948 49.744,-41.739 25.418,-101.948 25.418,-101.948 z"
   style="fill:#ffffff" /><path
   inkscape:connector-curvature="0"
   id="path3251"
   d="m 209.25,0 c 0,0 -64.172,9.941 -74.546,74.043 C 198.874,64.102 209.25,0 209.25,0 z"
   style="fill:#ffffff" /><polygon
   id="polygon3253"
   points="259.25,794.25 331.25,902.25 331.25,992.25 259.25,992.25 "
   transform="translate(-94.999997,-643.5)"
   style="fill:#ffffff" /><polygon
   id="polygon3255"
   points="403.25,859.5 475.25,859.5 475.25,974.25 403.25,866.25 "
   transform="translate(-94.999997,-643.5)"
   style="fill:#ffffff" /><polygon
   id="polygon3257"
   points="259.25,776.25 331.25,776.25 475.25,992.25 403.25,992.25 "
   transform="translate(-94.999997,-643.5)"
   style="fill:#ffffff" />
<path
   style="font-size:medium;font-style:normal;font-variant:normal;font-weight:normal;font-stretch:normal;text-indent:0;text-align:start;text-decoration:none;line-height:normal;letter-spacing:normal;word-spacing:normal;text-transform:none;direction:ltr;block-progression:tb;writing-mode:lr-tb;text-anchor:start;baseline-shift:baseline;color:#000000;fill:#ffffff;fill-opacity:1;stroke:none;stroke-width:18;marker:none;visibility:visible;display:inline;overflow:visible;enable-background:accumulate;font-family:Sans;-inkscape-font-specification:Sans"
   d="m 272.24685,15.88684 c -124.15747,0 -225,100.84257 -225,225 0,124.15747 100.84253,225 225,225 124.15747,0 225,-100.84253 225,-225 0,-8.40649 -0.47446,-16.70634 -1.375,-24.875 l -18.125,0 c 0.97503,8.1583 1.5,16.45159 1.5,24.875 0,114.42955 -92.57045,207 -207,207 -114.42955,0 -207,-92.57045 -207,-207 0,-114.42951 92.57045,-207 207,-207 69.94815,0 131.72622,34.59647 169.1875,87.625 l 21.5,0 C 423.11837,58.09862 352.5643,15.88684 272.24685,15.88684 z"
   id="circle3219"
   inkscape:connector-curvature="0" /><path
   d="m 555.25,132.75 -36,36 36,36 -247,0 72,-72 z"
   id="polygon3261"
   inkscape:connector-curvature="0"
   style="fill:#ffffff" /></svg>